<mxfile host="app.diagrams.net" modified="2024-06-10T20:11:49.440Z" agent="Mozilla/5.0 (Macintosh; Intel Mac OS X 10_15_7) AppleWebKit/537.36 (KHTML, like Gecko) Chrome/125.0.0.0 Safari/537.36" etag="18k-JLDxqu3zOZUZJIBj" version="24.2.5" type="device">
  <diagram name="Page-1" id="YPOPBX3dcqGfuc3RhGsy">
    <mxGraphModel dx="1122" dy="713" grid="1" gridSize="10" guides="1" tooltips="1" connect="1" arrows="1" fold="1" page="1" pageScale="1" pageWidth="1169" pageHeight="827" math="0" shadow="0">
      <root>
        <mxCell id="0" />
        <mxCell id="1" parent="0" />
        <mxCell id="glC8JqVeRTCvLyoHorfc-6" value="" style="ellipse;whiteSpace=wrap;html=1;aspect=fixed;fillColor=none;strokeWidth=14;" vertex="1" parent="1">
          <mxGeometry x="249.5" y="59.5" width="369" height="369" as="geometry" />
        </mxCell>
        <mxCell id="glC8JqVeRTCvLyoHorfc-2" value="" style="shape=image;html=1;verticalAlign=top;verticalLabelPosition=bottom;labelBackgroundColor=#ffffff;imageAspect=0;aspect=fixed;image=https://cdn1.iconfinder.com/data/icons/ionicons-outline-vol-2/512/newspaper-outline-128.png" vertex="1" parent="1">
          <mxGeometry x="370" y="234" width="128" height="128" as="geometry" />
        </mxCell>
        <mxCell id="glC8JqVeRTCvLyoHorfc-3" value="" style="shape=image;html=1;verticalAlign=top;verticalLabelPosition=bottom;labelBackgroundColor=#ffffff;imageAspect=0;aspect=fixed;image=https://cdn1.iconfinder.com/data/icons/material-core/23/lock-open-128.png;rotation=15;" vertex="1" parent="1">
          <mxGeometry x="498" y="224" width="40" height="40" as="geometry" />
        </mxCell>
        <mxCell id="glC8JqVeRTCvLyoHorfc-4" value="" style="shape=image;html=1;verticalAlign=top;verticalLabelPosition=bottom;labelBackgroundColor=#ffffff;imageAspect=0;aspect=fixed;image=https://cdn0.iconfinder.com/data/icons/eon-social-media-contact-info-2/32/twitter_bird_social_media_trending-128.png;imageBackground=none;rotation=30;" vertex="1" parent="1">
          <mxGeometry x="335" y="94" width="198" height="198" as="geometry" />
        </mxCell>
        <mxCell id="glC8JqVeRTCvLyoHorfc-9" value="" style="endArrow=none;html=1;rounded=0;edgeStyle=orthogonalEdgeStyle;curved=1;strokeWidth=6;" edge="1" parent="1">
          <mxGeometry width="50" height="50" relative="1" as="geometry">
            <mxPoint x="470" y="184" as="sourcePoint" />
            <mxPoint x="490" y="184" as="targetPoint" />
            <Array as="points">
              <mxPoint x="470" y="174" />
              <mxPoint x="490" y="174" />
              <mxPoint x="490" y="184" />
            </Array>
          </mxGeometry>
        </mxCell>
      </root>
    </mxGraphModel>
  </diagram>
</mxfile>
